<svg xmlns="http://www.w3.org/2000/svg" width="25.607" height="17.07" viewBox="0 0 25.607 17.07">
  <g id="noun-eye-3568808" transform="translate(-87.937 -140)">
    <path id="Path_1182" data-name="Path 1182" d="M165.53,148.218a13.966,13.966,0,0,0-25.458,0,.711.711,0,0,0,0,.634,13.966,13.966,0,0,0,25.458,0A.711.711,0,0,0,165.53,148.218ZM152.8,152.8a4.268,4.268,0,1,1,4.268-4.268A4.268,4.268,0,0,1,152.8,152.8Z" transform="translate(-52.062)" fill="#00c227"/>
    <path id="Path_1183" data-name="Path 1183" d="M340.46,268.33a.711.711,0,0,0-.711.711.712.712,0,0,1-.711.711.711.711,0,0,0,0,1.423,2.136,2.136,0,0,0,2.134-2.134A.711.711,0,0,0,340.46,268.33Z" transform="translate(-238.298 -120.506)" fill="#00c227"/>
  </g>
</svg>
