<svg xmlns="http://www.w3.org/2000/svg" width="13.971" height="17.693" viewBox="0 0 13.971 17.693">
  <g id="noun-change-3324279" transform="translate(-92.201 -119.651)">
    <path id="Path_1187" data-name="Path 1187" d="M223.386,124.647a.965.965,0,0,1,.965-.965h9.709l-2.394-2.394h0a.965.965,0,0,1,1.365-1.365l4.042,4.042h0a.966.966,0,0,1-.682,1.648h-12.04a.965.965,0,0,1-.965-.965Zm13.005,6.735h-12.04a.966.966,0,0,0-.682,1.648l4.042,4.042h0a.965.965,0,0,0,1.365-1.365l-2.394-2.394h9.709a.965.965,0,1,0,0-1.931Z" transform="translate(-131.185 0)" fill="#44413d"/>
  </g>
</svg>
