<svg xmlns="http://www.w3.org/2000/svg" width="20.631" height="13.753" viewBox="0 0 20.631 13.753">
  <g id="noun-eye-3568808" transform="translate(-87.937 -140)">
    <path id="Path_1182" data-name="Path 1182" d="M160.569,146.621a11.252,11.252,0,0,0-20.51,0,.573.573,0,0,0,0,.51,11.252,11.252,0,0,0,20.51,0A.573.573,0,0,0,160.569,146.621Zm-10.255,3.694a3.438,3.438,0,1,1,3.438-3.438A3.438,3.438,0,0,1,150.314,150.315Z" transform="translate(-52.062)" fill="#e5a812"/>
    <path id="Path_1183" data-name="Path 1183" d="M340.045,268.33a.573.573,0,0,0-.573.573.574.574,0,0,1-.573.573.573.573,0,0,0,0,1.146,1.721,1.721,0,0,0,1.719-1.719A.573.573,0,0,0,340.045,268.33Z" transform="translate(-240.648 -122.026)" fill="#e5a812"/>
  </g>
</svg>
