<svg id="vuesax_linear_gallery-add" data-name="vuesax/linear/gallery-add" xmlns="http://www.w3.org/2000/svg" width="29.824" height="29.824" viewBox="0 0 29.824 29.824">
  <g id="gallery-add">
    <path id="Vector" d="M4.971,2.485A2.485,2.485,0,1,1,2.485,0,2.485,2.485,0,0,1,4.971,2.485Z" transform="translate(8.699 7.456)" fill="none" stroke="#999" stroke-linecap="round" stroke-linejoin="round" stroke-width="1.5"/>
    <path id="Vector-2" data-name="Vector" d="M13.669,0H8.7C2.485,0,0,2.485,0,8.7v7.456c0,6.213,2.485,8.7,8.7,8.7h7.456c6.213,0,8.7-2.485,8.7-8.7V9.941" transform="translate(2.485 2.485)" fill="none" stroke="#999" stroke-linecap="round" stroke-linejoin="round" stroke-width="1.5"/>
    <path id="Vector-3" data-name="Vector" d="M0,0H6.835" transform="translate(19.572 6.213)" fill="none" stroke="#999" stroke-linecap="round" stroke-width="1.5"/>
    <path id="Vector-4" data-name="Vector" d="M0,6.835V0" transform="translate(22.99 2.796)" fill="none" stroke="#999" stroke-linecap="round" stroke-width="1.5"/>
    <path id="Vector-5" data-name="Vector" d="M0,8.64,6.126,4.526A2.8,2.8,0,0,1,9.407,4.7l.41.36a2.77,2.77,0,0,0,3.5,0L18.491.624a2.77,2.77,0,0,1,3.5,0l2.026,1.74" transform="translate(3.318 14.909)" fill="none" stroke="#999" stroke-linecap="round" stroke-linejoin="round" stroke-width="1.5"/>
    <path id="Vector-6" data-name="Vector" d="M0,0H29.824V29.824H0Z" fill="none" opacity="0"/>
  </g>
</svg>
